<svg width="290" height="107" viewBox="0 0 290 107" version="1.1" xmlns="http://www.w3.org/2000/svg" xmlns:xlink="http://www.w3.org/1999/xlink">
<title>Group</title>
<desc>Created using Figma</desc>
<g id="Canvas" transform="translate(-2324 -169)">
<g id="Group">
<g id="crs1">
<g id="Subtract">
<use xlink:href="#path0_fill" transform="matrix(1 0 0 -1 2333 267)" fill="#219653"/>
</g>
</g>
<g id="crs4">
<g id="Vector">
<use xlink:href="#path1_fill" transform="matrix(-1 0 0 -1 2606 268)" fill="#219653"/>
</g>
</g>
<g id="crs4">
<g id="Vector">
<use xlink:href="#path2_fill" transform="matrix(-1 0 -0 -1 2600 203)" fill="#219653"/>
<use xlink:href="#path3_fill" transform="matrix(-1 0 -0 -1 2600 203)" fill="#219653"/>
<use xlink:href="#path4_fill" transform="matrix(-1 0 -0 -1 2600 203)" fill="#219653"/>
<use xlink:href="#path5_fill" transform="matrix(-1 0 -0 -1 2600 203)" fill="#219653"/>
<use xlink:href="#path6_fill" transform="matrix(-1 0 -0 -1 2600 203)" fill="#219653"/>
<use xlink:href="#path7_fill" transform="matrix(-1 0 -0 -1 2600 203)" fill="#219653"/>
<use xlink:href="#path8_fill" transform="matrix(-1 0 -0 -1 2600 203)" fill="#219653"/>
<use xlink:href="#path9_fill" transform="matrix(-1 0 -0 -1 2600 203)" fill="#219653"/>
<use xlink:href="#path10_fill" transform="matrix(-1 0 -0 -1 2600 203)" fill="#219653"/>
<use xlink:href="#path11_fill" transform="matrix(-1 0 -0 -1 2600 203)" fill="#219653"/>
<use xlink:href="#path12_fill" transform="matrix(-1 0 -0 -1 2600 203)" fill="#219653"/>
<use xlink:href="#path13_fill" transform="matrix(-1 0 -0 -1 2600 203)" fill="#219653"/>
<use xlink:href="#path14_fill" transform="matrix(-1 0 -0 -1 2600 203)" fill="#219653"/>
<use xlink:href="#path15_fill" transform="matrix(-1 0 -0 -1 2600 203)" fill="#219653"/>
</g>
</g>
<g id="Rectangle" filter="url(#filter0_d)">
<use xlink:href="#path16_fill" transform="translate(2360 204)" fill="#0A0C0D"/>
<mask id="mask0_outline_out">
<rect id="mask0_outline_inv" fill="white" x="-2" y="-2" width="211" height="40" transform="translate(2360 204)"/>
<use xlink:href="#path16_fill" fill="black" transform="translate(2360 204)"/>
</mask>
<g mask="url(#mask0_outline_out)">
<use xlink:href="#path17_stroke_2x" transform="translate(2360 204)" fill="#219653"/>
</g>
</g>
<g id="crs header">
<g id="Vector">
<use xlink:href="#path18_fill" transform="translate(2336 169)" fill="#219653"/>
</g>
<g id="Vector">
<use xlink:href="#path19_fill" transform="translate(2433 173)" fill="#219653"/>
</g>
<g id="Rectangle">
<use xlink:href="#path20_fill" transform="translate(2379 173)" fill="#219653"/>
</g>
<g id="username">
<use xlink:href="#path21_fill" transform="translate(2360 185)" fill="#219653"/>
</g>
</g>
<g id="Found">
<use xlink:href="#path22_fill" transform="translate(2399 253)" fill="#219653"/>
</g>
</g>
</g>
<defs>
<filter id="filter0_d" filterUnits="userSpaceOnUse" x="2352" y="196" width="223" height="52" color-interpolation-filters="sRGB">
<feFlood flood-opacity="0" result="BackgroundImageFix"/>
<feColorMatrix in="SourceAlpha" type="matrix" values="0 0 0 0 0 0 0 0 0 0 0 0 0 0 0 0 0 0 255 0"/>
<feOffset dx="0" dy="0"/>
<feGaussianBlur stdDeviation="3"/>
<feColorMatrix type="matrix" values="0 0 0 0 0.129412 0 0 0 0 0.588235 0 0 0 0 0.32549 0 0 0 0.25 0"/>
<feBlend mode="normal" in2="BackgroundImageFix" result="effect1_dropShadow"/>
<feBlend mode="normal" in="SourceGraphic" in2="effect1_dropShadow" result="shape"/>
</filter>
<path id="path0_fill" fill-rule="evenodd" d="M 5 28L 5 42L 9 46L 9 20L 20 9L 58 9L 54 5L 38 5L 33 0L 9 0L 0 9L 0 23L 5 28ZM 2.01739 11L 8 5L 10 5L 2.01739 13L 2.01739 11Z"/>
<path id="path1_fill" d="M 141 6L 40 6L 34 0L 10 0L 0 10L 0 34L 6 40L 6 52L 10 48L 10 16L 16 10L 145 10L 141 6Z"/>
<path id="path2_fill" d="M 56 20L 60 20L 64 16L 60 16L 56 20Z"/>
<path id="path3_fill" d="M 50 20L 54 20L 58 16L 54 16L 50 20Z"/>
<path id="path4_fill" d="M 44 20L 48 20L 52 16L 48 16L 44 20Z"/>
<path id="path5_fill" d="M 38 20L 42 20L 46 16L 42 16L 38 20Z"/>
<path id="path6_fill" d="M 32 20L 36 20L 40 16L 36 16L 32 20Z"/>
<path id="path7_fill" d="M 26 20L 30 20L 34 16L 30 16L 26 20Z"/>
<path id="path8_fill" d="M 20 20L 24 20L 28 16L 24 16L 20 20Z"/>
<path id="path9_fill" d="M 14 20L 18 20L 22 16L 18 16L 14 20Z"/>
<path id="path10_fill" d="M 8 20L 12 20L 16 16L 12 16L 8 20Z"/>
<path id="path11_fill" d="M 3 19L 4 20L 6 20L 10 16L 6 16L 3 19Z"/>
<path id="path12_fill" d="M 4 12L 0 16L 2 18L 5 15L 4 14L 4 12Z"/>
<path id="path13_fill" d="M 0 10L 0 14L 4 10L 4 6L 0 10Z"/>
<path id="path14_fill" d="M 0 4L 0 8L 4 4L 4 0L 0 4Z"/>
<path id="path15_fill" d="M 62 20L 66 16L 94 16L 90 20L 78 20L 72 26L 36 26L 32 22L 70 22L 72 20L 62 20Z"/>
<path id="path16_fill" d="M 0 2C 0 0.895431 0.895431 0 2 0L 205 0C 206.105 0 207 0.895431 207 2L 207 34C 207 35.1046 206.105 36 205 36L 2 36C 0.895431 36 0 35.1046 0 34L 0 2Z"/>
<path id="path17_stroke_2x" d="M 2 2L 205 2L 205 -2L 2 -2L 2 2ZM 205 2L 205 34L 209 34L 209 2L 205 2ZM 205 34L 2 34L 2 38L 205 38L 205 34ZM 2 34L 2 2L -2 2L -2 34L 2 34ZM 2 34L -2 34C -2 36.2091 -0.209139 38 2 38L 2 34ZM 205 34L 205 38C 207.209 38 209 36.2091 209 34L 205 34ZM 205 2L 209 2C 209 -0.209139 207.209 -2 205 -2L 205 2ZM 2 -2C -0.209139 -2 -2 -0.209139 -2 2L 2 2L 2 -2Z"/>
<path id="path18_fill" d="M 8 33L 6 35L 6 54L 2 57L 2 43L 0 41L 0 20L 20 0L 34.4 0L 38.4 4L 43 4L 43 8L 23 8L 8 23L 8 33Z"/>
<path id="path19_fill" d="M 16 14L 6 4L 0 4L 0 0L 8 0L 18 10L 39 10L 43 14L 16 14Z"/>
<path id="path20_fill" d="M 0 0L 54 0L 54 4L 0 4L 0 0Z"/>
<path id="path21_fill" d="M 6.132 11.776C 5.81467 11.86 5.42733 11.944 4.97 12.028C 4.522 12.112 4.032 12.154 3.5 12.154C 2.95867 12.154 2.51533 12.0793 2.17 11.93C 1.82467 11.7807 1.54933 11.5707 1.344 11.3C 1.148 11.02 1.01267 10.6933 0.938 10.32C 0.863333 9.94667 0.826 9.536 0.826 9.088L 0.826 5.42L 2.548 5.42L 2.548 8.864C 2.548 9.47067 2.618 9.92333 2.758 10.222C 2.90733 10.5113 3.192 10.656 3.612 10.656C 3.87333 10.656 4.13467 10.6327 4.396 10.586L 4.396 5.42L 6.132 5.42L 6.132 11.776ZM 10.192 10.698C 10.612 10.698 10.934 10.67 11.158 10.614C 11.382 10.5487 11.494 10.4227 11.494 10.236C 11.494 10.1147 11.4567 10.012 11.382 9.928C 11.3167 9.844 11.2187 9.774 11.088 9.718C 10.9667 9.65267 10.822 9.592 10.654 9.536C 10.4953 9.48 10.3273 9.424 10.15 9.368C 9.898 9.29333 9.64133 9.20933 9.38 9.116C 9.11867 9.01333 8.88067 8.88733 8.666 8.738C 8.45133 8.58867 8.274 8.402 8.134 8.178C 7.994 7.94467 7.924 7.65533 7.924 7.31C 7.924 7.03 7.97533 6.76867 8.078 6.526C 8.19 6.274 8.358 6.05467 8.582 5.868C 8.81533 5.672 9.10933 5.52267 9.464 5.42C 9.81867 5.308 10.2433 5.252 10.738 5.252C 11.1673 5.252 11.564 5.28467 11.928 5.35C 12.3013 5.41533 12.6233 5.50867 12.894 5.63L 12.628 7.086C 12.4693 7.03933 12.222 6.96467 11.886 6.862C 11.55 6.75 11.172 6.694 10.752 6.694C 10.3133 6.694 10.0147 6.75 9.856 6.862C 9.70667 6.96467 9.632 7.07667 9.632 7.198C 9.632 7.30067 9.66467 7.394 9.73 7.478C 9.80467 7.55267 9.898 7.62267 10.01 7.688C 10.1313 7.75333 10.2667 7.81867 10.416 7.884C 10.5747 7.94 10.7427 7.996 10.92 8.052C 11.172 8.136 11.4333 8.22933 11.704 8.332C 11.9747 8.43467 12.2173 8.56533 12.432 8.724C 12.656 8.87333 12.838 9.06933 12.978 9.312C 13.118 9.54533 13.188 9.83467 13.188 10.18C 13.188 10.4507 13.1367 10.7073 13.034 10.95C 12.9313 11.1927 12.7587 11.4027 12.516 11.58C 12.2827 11.7573 11.9747 11.8973 11.592 12C 11.2093 12.1027 10.738 12.154 10.178 12.154C 9.60867 12.154 9.12333 12.0887 8.722 11.958C 8.32067 11.8273 7.99867 11.7107 7.756 11.608L 8.022 10.166C 8.34867 10.2967 8.694 10.418 9.058 10.53C 9.43133 10.642 9.80933 10.698 10.192 10.698ZM 14.434 8.766C 14.434 8.18733 14.5227 7.67867 14.7 7.24C 14.8773 6.80133 15.1107 6.43733 15.4 6.148C 15.6893 5.84933 16.0207 5.62533 16.394 5.476C 16.7673 5.32667 17.15 5.252 17.542 5.252C 18.5127 5.252 19.25 5.54133 19.754 6.12C 20.258 6.68933 20.51 7.52467 20.51 8.626C 20.51 8.738 20.5053 8.85467 20.496 8.976C 20.496 9.09733 20.4913 9.19533 20.482 9.27L 16.212 9.27C 16.212 9.69933 16.3893 10.04 16.744 10.292C 17.0987 10.5347 17.556 10.656 18.116 10.656C 18.4613 10.656 18.788 10.6187 19.096 10.544C 19.4133 10.4693 19.6793 10.3947 19.894 10.32L 20.132 11.79C 19.8333 11.8927 19.516 11.9767 19.18 12.042C 18.844 12.1167 18.466 12.154 18.046 12.154C 17.486 12.154 16.982 12.084 16.534 11.944C 16.0953 11.7947 15.7173 11.58 15.4 11.3C 15.092 11.0107 14.854 10.656 14.686 10.236C 14.518 9.816 14.434 9.326 14.434 8.766ZM 18.844 8.08C 18.844 7.90267 18.8207 7.73467 18.774 7.576C 18.7273 7.408 18.6527 7.25867 18.55 7.128C 18.4473 6.99733 18.3167 6.89467 18.158 6.82C 17.9993 6.736 17.8033 6.694 17.57 6.694C 17.346 6.694 17.15 6.73133 16.982 6.806C 16.8233 6.88067 16.688 6.98333 16.576 7.114C 16.4733 7.24467 16.3893 7.394 16.324 7.562C 16.268 7.73 16.2307 7.90267 16.212 8.08L 18.844 8.08ZM 27.118 7.17C 27.006 7.142 26.8707 7.114 26.712 7.086C 26.5627 7.058 26.4087 7.03467 26.25 7.016C 26.0913 6.988 25.9373 6.96933 25.788 6.96C 25.6387 6.95067 25.5127 6.946 25.41 6.946C 25.1673 6.946 24.9293 6.96 24.696 6.988C 24.4627 7.00667 24.2247 7.04867 23.982 7.114L 23.982 12L 22.246 12L 22.246 5.854C 22.7033 5.686 23.17 5.55067 23.646 5.448C 24.1313 5.34533 24.696 5.294 25.34 5.294C 25.4333 5.294 25.564 5.29867 25.732 5.308C 25.9093 5.31733 26.096 5.336 26.292 5.364C 26.488 5.38267 26.684 5.41067 26.88 5.448C 27.0853 5.476 27.2673 5.518 27.426 5.574L 27.118 7.17ZM 28.882 5.63C 29.19 5.546 29.568 5.46667 30.016 5.392C 30.4733 5.31733 30.968 5.28 31.5 5.28C 32.0227 5.28 32.4567 5.35467 32.802 5.504C 33.1473 5.644 33.418 5.84933 33.614 6.12C 33.8193 6.38133 33.964 6.69867 34.048 7.072C 34.132 7.436 34.174 7.842 34.174 8.29L 34.174 12L 32.452 12L 32.452 8.514C 32.452 7.898 32.382 7.45467 32.242 7.184C 32.102 6.91333 31.8173 6.778 31.388 6.778C 31.2573 6.778 31.1267 6.78267 30.996 6.792C 30.8747 6.80133 30.744 6.81533 30.604 6.834L 30.604 12L 28.882 12L 28.882 5.63ZM 38.514 10.768C 38.7007 10.768 38.8827 10.768 39.06 10.768C 39.2373 10.7587 39.3913 10.7447 39.522 10.726L 39.522 9.214C 39.41 9.19533 39.2747 9.18133 39.116 9.172C 38.9573 9.15333 38.8127 9.144 38.682 9.144C 38.5047 9.144 38.332 9.158 38.164 9.186C 37.996 9.20467 37.8467 9.242 37.716 9.298C 37.5947 9.354 37.4967 9.43333 37.422 9.536C 37.3473 9.63867 37.31 9.774 37.31 9.942C 37.31 10.2407 37.422 10.4553 37.646 10.586C 37.87 10.7073 38.1593 10.768 38.514 10.768ZM 38.36 5.252C 38.9013 5.252 39.3493 5.31733 39.704 5.448C 40.068 5.56933 40.3573 5.74667 40.572 5.98C 40.7867 6.204 40.9407 6.484 41.034 6.82C 41.1273 7.14667 41.174 7.51533 41.174 7.926L 41.174 11.846C 40.922 11.902 40.5487 11.9673 40.054 12.042C 39.5593 12.1167 39.004 12.154 38.388 12.154C 37.968 12.154 37.5853 12.1167 37.24 12.042C 36.904 11.9673 36.6147 11.846 36.372 11.678C 36.1293 11.5007 35.9427 11.2767 35.812 11.006C 35.6813 10.726 35.616 10.3853 35.616 9.984C 35.616 9.60133 35.6907 9.27933 35.84 9.018C 35.9893 8.75667 36.19 8.54667 36.442 8.388C 36.694 8.22933 36.9833 8.11733 37.31 8.052C 37.6367 7.97733 37.9773 7.94 38.332 7.94C 38.78 7.94 39.1767 7.97733 39.522 8.052L 39.522 7.842C 39.522 7.51533 39.4193 7.24467 39.214 7.03C 39.0087 6.806 38.654 6.694 38.15 6.694C 37.8233 6.694 37.506 6.71733 37.198 6.764C 36.8993 6.81067 36.6567 6.86667 36.47 6.932L 36.232 5.546C 36.4467 5.47133 36.75 5.406 37.142 5.35C 37.534 5.28467 37.94 5.252 38.36 5.252ZM 46.802 5.35C 47.166 5.35 47.4647 5.406 47.698 5.518C 47.9313 5.63 48.1133 5.798 48.244 6.022C 48.384 6.246 48.4773 6.53067 48.524 6.876C 48.5707 7.212 48.594 7.60867 48.594 8.066L 48.594 12L 47.194 12L 47.194 7.982C 47.194 7.72067 47.1753 7.51067 47.138 7.352C 47.11 7.19333 47.068 7.072 47.012 6.988C 46.9653 6.904 46.9047 6.848 46.83 6.82C 46.7647 6.792 46.6947 6.778 46.62 6.778C 46.536 6.778 46.4473 6.78733 46.354 6.806C 46.2607 6.81533 46.1767 6.83867 46.102 6.876C 46.13 7.05333 46.1533 7.24933 46.172 7.464C 46.1907 7.67867 46.2 7.91667 46.2 8.178L 46.2 9.494L 44.8 9.494L 44.8 7.982C 44.8 7.534 44.7533 7.22133 44.66 7.044C 44.576 6.86667 44.436 6.778 44.24 6.778C 44.184 6.778 44.114 6.78267 44.03 6.792C 43.9553 6.80133 43.8807 6.81533 43.806 6.834L 43.806 12L 42.406 12L 42.406 5.672C 42.77 5.56933 43.1293 5.49 43.484 5.434C 43.8387 5.378 44.1513 5.35 44.422 5.35C 44.6647 5.35 44.8793 5.38267 45.066 5.448C 45.262 5.504 45.43 5.602 45.57 5.742C 45.7287 5.63933 45.9153 5.55067 46.13 5.476C 46.3447 5.392 46.5687 5.35 46.802 5.35ZM 49.434 8.766C 49.434 8.18733 49.5227 7.67867 49.7 7.24C 49.8773 6.80133 50.1107 6.43733 50.4 6.148C 50.6893 5.84933 51.0207 5.62533 51.394 5.476C 51.7673 5.32667 52.15 5.252 52.542 5.252C 53.5127 5.252 54.25 5.54133 54.754 6.12C 55.258 6.68933 55.51 7.52467 55.51 8.626C 55.51 8.738 55.5053 8.85467 55.496 8.976C 55.496 9.09733 55.4913 9.19533 55.482 9.27L 51.212 9.27C 51.212 9.69933 51.3893 10.04 51.744 10.292C 52.0987 10.5347 52.556 10.656 53.116 10.656C 53.4613 10.656 53.788 10.6187 54.096 10.544C 54.4133 10.4693 54.6793 10.3947 54.894 10.32L 55.132 11.79C 54.8333 11.8927 54.516 11.9767 54.18 12.042C 53.844 12.1167 53.466 12.154 53.046 12.154C 52.486 12.154 51.982 12.084 51.534 11.944C 51.0953 11.7947 50.7173 11.58 50.4 11.3C 50.092 11.0107 49.854 10.656 49.686 10.236C 49.518 9.816 49.434 9.326 49.434 8.766ZM 53.844 8.08C 53.844 7.90267 53.8207 7.73467 53.774 7.576C 53.7273 7.408 53.6527 7.25867 53.55 7.128C 53.4473 6.99733 53.3167 6.89467 53.158 6.82C 52.9993 6.736 52.8033 6.694 52.57 6.694C 52.346 6.694 52.15 6.73133 51.982 6.806C 51.8233 6.88067 51.688 6.98333 51.576 7.114C 51.4733 7.24467 51.3893 7.394 51.324 7.562C 51.268 7.73 51.2307 7.90267 51.212 8.08L 53.844 8.08Z"/>
<path id="path22_fill" d="M 1.092 10L 1.092 2.572L 5.304 2.572L 5.304 3.412L 2.076 3.412L 2.076 5.728L 4.92 5.728L 4.92 6.556L 2.076 6.556L 2.076 10L 1.092 10ZM 11.52 7.216C 11.52 7.656 11.456 8.056 11.328 8.416C 11.208 8.768 11.036 9.072 10.812 9.328C 10.588 9.584 10.32 9.784 10.008 9.928C 9.696 10.064 9.356 10.132 8.988 10.132C 8.628 10.132 8.292 10.064 7.98 9.928C 7.676 9.784 7.412 9.584 7.188 9.328C 6.964 9.072 6.788 8.768 6.66 8.416C 6.54 8.056 6.48 7.656 6.48 7.216C 6.48 6.776 6.54 6.376 6.66 6.016C 6.788 5.656 6.964 5.352 7.188 5.104C 7.412 4.848 7.676 4.652 7.98 4.516C 8.292 4.372 8.628 4.3 8.988 4.3C 9.356 4.3 9.696 4.372 10.008 4.516C 10.32 4.652 10.588 4.848 10.812 5.104C 11.036 5.352 11.208 5.656 11.328 6.016C 11.456 6.376 11.52 6.776 11.52 7.216ZM 10.5 7.216C 10.5 6.584 10.364 6.088 10.092 5.728C 9.82 5.36 9.452 5.176 8.988 5.176C 8.532 5.176 8.168 5.36 7.896 5.728C 7.632 6.088 7.5 6.584 7.5 7.216C 7.5 7.84 7.632 8.336 7.896 8.704C 8.168 9.064 8.532 9.244 8.988 9.244C 9.452 9.244 9.82 9.064 10.092 8.704C 10.364 8.336 10.5 7.84 10.5 7.216ZM 17.148 9.844C 16.932 9.9 16.644 9.96 16.284 10.024C 15.932 10.088 15.516 10.12 15.036 10.12C 14.612 10.12 14.26 10.06 13.98 9.94C 13.7 9.812 13.472 9.636 13.296 9.412C 13.12 9.18 12.996 8.908 12.924 8.596C 12.852 8.284 12.816 7.94 12.816 7.564L 12.816 4.432L 13.8 4.432L 13.8 7.348C 13.8 8.036 13.9 8.524 14.1 8.812C 14.308 9.1 14.652 9.244 15.132 9.244C 15.236 9.244 15.34 9.24 15.444 9.232C 15.556 9.224 15.66 9.216 15.756 9.208C 15.852 9.192 15.936 9.18 16.008 9.172C 16.08 9.156 16.128 9.144 16.152 9.136L 16.152 4.432L 17.148 4.432L 17.148 9.844ZM 18.852 4.588C 19.212 4.5 19.568 4.432 19.92 4.384C 20.28 4.336 20.616 4.312 20.928 4.312C 21.672 4.312 22.232 4.504 22.608 4.888C 22.992 5.272 23.184 5.888 23.184 6.736L 23.184 10L 22.2 10L 22.2 6.916C 22.2 6.556 22.168 6.264 22.104 6.04C 22.04 5.816 21.948 5.644 21.828 5.524C 21.716 5.396 21.576 5.308 21.408 5.26C 21.248 5.212 21.072 5.188 20.88 5.188C 20.72 5.188 20.548 5.2 20.364 5.224C 20.188 5.24 20.016 5.264 19.848 5.296L 19.848 10L 18.852 10L 18.852 4.588ZM 28.152 5.608C 28.04 5.504 27.876 5.408 27.66 5.32C 27.444 5.224 27.22 5.176 26.988 5.176C 26.724 5.176 26.496 5.228 26.304 5.332C 26.12 5.436 25.968 5.58 25.848 5.764C 25.728 5.94 25.64 6.156 25.584 6.412C 25.528 6.66 25.5 6.928 25.5 7.216C 25.5 7.864 25.652 8.364 25.956 8.716C 26.26 9.068 26.656 9.244 27.144 9.244C 27.392 9.244 27.6 9.232 27.768 9.208C 27.944 9.184 28.072 9.16 28.152 9.136L 28.152 5.608ZM 28.152 1.852L 29.148 1.684L 29.148 9.844C 28.932 9.908 28.656 9.972 28.32 10.036C 27.984 10.1 27.592 10.132 27.144 10.132C 26.744 10.132 26.38 10.064 26.052 9.928C 25.724 9.792 25.444 9.6 25.212 9.352C 24.98 9.096 24.8 8.788 24.672 8.428C 24.544 8.068 24.48 7.664 24.48 7.216C 24.48 6.784 24.532 6.392 24.636 6.04C 24.748 5.68 24.908 5.372 25.116 5.116C 25.324 4.86 25.572 4.66 25.86 4.516C 26.156 4.372 26.492 4.3 26.868 4.3C 27.164 4.3 27.424 4.336 27.648 4.408C 27.872 4.48 28.04 4.556 28.152 4.636L 28.152 1.852Z"/>
</defs>
</svg>
