<svg width="338" height="107" viewBox="0 0 338 107" version="1.1" xmlns="http://www.w3.org/2000/svg" xmlns:xlink="http://www.w3.org/1999/xlink">
<title>Group 2</title>
<desc>Created using Figma</desc>
<g id="Canvas" transform="translate(-2324 -301)">
<g id="Group 2">
<g id="error">
<g id="error">
<use xlink:href="#path0_fill" transform="translate(2620 335)" fill="#EB5757"/>
<use xlink:href="#path1_fill" transform="translate(2620 335)" fill="#EB5757"/>
<use xlink:href="#path2_fill" transform="translate(2620 335)" fill="#EB5757"/>
<use xlink:href="#path3_fill" transform="translate(2620 335)" fill="#EB5757"/>
<use xlink:href="#path4_fill" transform="translate(2620 335)" fill="#EB5757"/>
<use xlink:href="#path5_fill" transform="translate(2620 335)" fill="#EB5757"/>
<use xlink:href="#path6_fill" transform="translate(2620 335)" fill="#EB5757"/>
<use xlink:href="#path7_fill" transform="translate(2620 335)" fill="#EB5757"/>
<use xlink:href="#path8_fill" transform="translate(2620 335)" fill="#EB5757"/>
<use xlink:href="#path9_fill" transform="translate(2620 335)" fill="#EB5757"/>
</g>
</g>
<g id="Rectangle">
<use xlink:href="#path10_fill" transform="translate(2341 316)" fill="#0D1012"/>
</g>
<g id="Rectangle" filter="url(#filter0_d)">
<use xlink:href="#path11_fill" transform="translate(2360 336)" fill="#0A0C0D"/>
</g>
<g id="crs header">
<g id="Vector">
<use xlink:href="#path12_fill" transform="translate(2336 301)" fill="#EB5757"/>
</g>
<g id="Vector">
<use xlink:href="#path13_fill" transform="translate(2433 305)" fill="#EB5757"/>
</g>
<g id="Rectangle">
<use xlink:href="#path14_fill" transform="translate(2379 305)" fill="#EB5757"/>
</g>
<g id="password">
<use xlink:href="#path15_fill" transform="translate(2360 317)" fill="#EB5757"/>
</g>
</g>
<g id="crs1">
<g id="Vector">
<use xlink:href="#path16_fill" transform="matrix(-4.37114e-08 -1 -1 4.37114e-08 2386 394)" fill="#EB5757"/>
</g>
</g>
<g id="crl2">
<g id="Vector">
<use xlink:href="#path17_fill" transform="matrix(-1 0 0 -1 2600 396)" fill="#EB5757"/>
<use xlink:href="#path18_fill" transform="matrix(-1 0 0 -1 2600 396)" fill="#EB5757"/>
<use xlink:href="#path19_fill" transform="matrix(-1 0 0 -1 2600 396)" fill="#EB5757"/>
<use xlink:href="#path20_fill" transform="matrix(-1 0 0 -1 2600 396)" fill="#EB5757"/>
</g>
</g>
<g id="crs3">
<g id="Vector">
<use xlink:href="#path21_fill" transform="matrix(1 0 -0 -1 2503 355)" fill="#EB5757"/>
</g>
</g>
<g id="Four tries remaining">
<use xlink:href="#path22_fill" transform="translate(2394 385)" fill="#EB5757"/>
</g>
</g>
</g>
<defs>
<filter id="filter0_d" filterUnits="userSpaceOnUse" x="2354" y="330" width="219" height="48" color-interpolation-filters="sRGB">
<feFlood flood-opacity="0" result="BackgroundImageFix"/>
<feColorMatrix in="SourceAlpha" type="matrix" values="0 0 0 0 0 0 0 0 0 0 0 0 0 0 0 0 0 0 255 0"/>
<feOffset dx="0" dy="0"/>
<feGaussianBlur stdDeviation="3"/>
<feColorMatrix type="matrix" values="0 0 0 0 0.921569 0 0 0 0 0.341176 0 0 0 0 0.341176 0 0 0 0.25 0"/>
<feBlend mode="normal" in2="BackgroundImageFix" result="effect1_dropShadow"/>
<feBlend mode="normal" in="SourceGraphic" in2="effect1_dropShadow" result="shape"/>
</filter>
<path id="path0_fill" d="M 21.3582 8.14911L 20.2265 8.43029L 16.8722 13.8881L 15.694 9.55636L 18.6289 4.78075L 18.3343 3.69779L 20.4308 0.286635L 21.4052 0L 22.4094 0.292792L 29.3477 11.9952L 29.0357 13.0736L 31.8926 17.8923L 27.379 16.699L 23.7058 10.5036L 22.5774 10.2053L 21.3582 8.14911Z"/>
<path id="path1_fill" d="M 33.9092 27.713L 35.1577 23.3992L 39.2391 30.283L 40.3675 30.5813L 42 34.1304L 41.6879 35.2088L 40.8601 36L 31.7535 36L 30.9257 35.2088L 24.3027 35.2088L 28.4421 31.2527L 31.7535 31.2527L 32.5814 32.044L 34.2371 32.044L 35.6041 30.7375L 33.9092 27.713Z"/>
<path id="path2_fill" d="M 14.8554 10.9208L 16.0337 15.2526L 14.7758 17.2993L 13.5977 12.9675L 14.8554 10.9208Z"/>
<path id="path3_fill" d="M 11.8408 22.0749L 7.30831 23.2009L 1.85765 32.0699L 0.724485 32.3514L 0 34.1259L 0.294584 35.2088L 1.12245 36L 6.08965 36L 6.91752 35.2088L 9.40112 35.2088L 12.7126 32.044L 6.65032 32.044L 6.68468 32.0268L 8.36184 29.2979L 8.06726 28.215L 11.8408 22.0749Z"/>
<path id="path4_fill" d="M 11.0569 35.2088L 12.7126 35.2088L 16.0241 32.044L 14.3683 32.044L 11.0569 35.2088Z"/>
<path id="path5_fill" d="M 16.0241 35.2088L 14.3683 35.2088L 17.6798 32.044L 19.3355 32.044L 16.0241 35.2088Z"/>
<path id="path6_fill" d="M 24.3027 32.044L 25.9585 32.044L 22.647 35.2088L 20.9913 35.2088L 24.3027 32.044Z"/>
<path id="path7_fill" d="M 21.8191 12.2638L 20.1634 12.2638L 18.5077 13.8462L 18.5077 15.4286L 19.3355 16.2198L 19.3355 19.3846L 20.1634 20.1759L 20.1634 24.9231L 20.9913 25.7143L 21.8191 24.9231L 21.8191 22.5495L 22.647 21.7583L 22.647 18.5934L 23.4749 17.8022L 23.4749 13.8462L 21.8191 12.2638Z"/>
<path id="path8_fill" d="M 19.3355 35.2088L 22.647 32.044L 20.9913 32.044L 17.6798 35.2088L 19.3355 35.2088Z"/>
<path id="path9_fill" d="M 20.9913 27.2967L 20.1634 28.0879L 20.1634 29.6704L 20.9913 30.4616L 21.8191 29.6704L 21.8191 28.0879L 20.9913 27.2967Z"/>
<path id="path10_fill" d="M 0 2C 0 0.895431 0.895431 0 2 0L 254 0C 255.105 0 256 0.895431 256 2L 256 73C 256 74.1046 255.105 75 254 75L 2 75C 0.895431 75 0 74.1046 0 73L 0 2Z"/>
<path id="path11_fill" d="M 0 2C 0 0.895431 0.895431 0 2 0L 205 0C 206.105 0 207 0.895431 207 2L 207 34C 207 35.1046 206.105 36 205 36L 2 36C 0.895431 36 0 35.1046 0 34L 0 2Z"/>
<path id="path12_fill" d="M 8 33L 6 35L 6 54L 2 57L 2 43L 0 41L 0 20L 20 0L 34.4 0L 38.4 4L 43 4L 43 8L 23 8L 8 23L 8 33Z"/>
<path id="path13_fill" d="M 16 14L 6 4L 0 4L 0 0L 8 0L 18 10L 39 10L 43 14L 16 14Z"/>
<path id="path14_fill" d="M 0 0L 54 0L 54 4L 0 4L 0 0Z"/>
<path id="path15_fill" d="M 4.816 8.766C 4.816 8.178 4.69933 7.69733 4.466 7.324C 4.23267 6.94133 3.878 6.75 3.402 6.75C 3.27133 6.75 3.13133 6.75933 2.982 6.778C 2.83267 6.78733 2.70667 6.79667 2.604 6.806L 2.604 10.418C 2.716 10.4927 2.86533 10.5533 3.052 10.6C 3.23867 10.6467 3.42533 10.67 3.612 10.67C 4.02267 10.67 4.326 10.5067 4.522 10.18C 4.718 9.844 4.816 9.37267 4.816 8.766ZM 6.566 8.71C 6.566 9.214 6.51 9.68067 6.398 10.11C 6.286 10.53 6.12267 10.894 5.908 11.202C 5.69333 11.5007 5.42267 11.734 5.096 11.902C 4.76933 12.07 4.39133 12.154 3.962 12.154C 3.52333 12.154 3.07067 12.0467 2.604 11.832L 2.604 14.31L 0.882 14.31L 0.882 5.63C 1.19933 5.52733 1.58667 5.44333 2.044 5.378C 2.51067 5.31267 2.968 5.28 3.416 5.28C 4.43333 5.28 5.21267 5.588 5.754 6.204C 6.29533 6.82 6.566 7.65533 6.566 8.71ZM 10.514 10.768C 10.7007 10.768 10.8827 10.768 11.06 10.768C 11.2373 10.7587 11.3913 10.7447 11.522 10.726L 11.522 9.214C 11.41 9.19533 11.2747 9.18133 11.116 9.172C 10.9573 9.15333 10.8127 9.144 10.682 9.144C 10.5047 9.144 10.332 9.158 10.164 9.186C 9.996 9.20467 9.84667 9.242 9.716 9.298C 9.59467 9.354 9.49667 9.43333 9.422 9.536C 9.34733 9.63867 9.31 9.774 9.31 9.942C 9.31 10.2407 9.422 10.4553 9.646 10.586C 9.87 10.7073 10.1593 10.768 10.514 10.768ZM 10.36 5.252C 10.9013 5.252 11.3493 5.31733 11.704 5.448C 12.068 5.56933 12.3573 5.74667 12.572 5.98C 12.7867 6.204 12.9407 6.484 13.034 6.82C 13.1273 7.14667 13.174 7.51533 13.174 7.926L 13.174 11.846C 12.922 11.902 12.5487 11.9673 12.054 12.042C 11.5593 12.1167 11.004 12.154 10.388 12.154C 9.968 12.154 9.58533 12.1167 9.24 12.042C 8.904 11.9673 8.61467 11.846 8.372 11.678C 8.12933 11.5007 7.94267 11.2767 7.812 11.006C 7.68133 10.726 7.616 10.3853 7.616 9.984C 7.616 9.60133 7.69067 9.27933 7.84 9.018C 7.98933 8.75667 8.19 8.54667 8.442 8.388C 8.694 8.22933 8.98333 8.11733 9.31 8.052C 9.63667 7.97733 9.97733 7.94 10.332 7.94C 10.78 7.94 11.1767 7.97733 11.522 8.052L 11.522 7.842C 11.522 7.51533 11.4193 7.24467 11.214 7.03C 11.0087 6.806 10.654 6.694 10.15 6.694C 9.82333 6.694 9.506 6.71733 9.198 6.764C 8.89933 6.81067 8.65667 6.86667 8.47 6.932L 8.232 5.546C 8.44667 5.47133 8.75 5.406 9.142 5.35C 9.534 5.28467 9.94 5.252 10.36 5.252ZM 17.192 10.698C 17.612 10.698 17.934 10.67 18.158 10.614C 18.382 10.5487 18.494 10.4227 18.494 10.236C 18.494 10.1147 18.4567 10.012 18.382 9.928C 18.3167 9.844 18.2187 9.774 18.088 9.718C 17.9667 9.65267 17.822 9.592 17.654 9.536C 17.4953 9.48 17.3273 9.424 17.15 9.368C 16.898 9.29333 16.6413 9.20933 16.38 9.116C 16.1187 9.01333 15.8807 8.88733 15.666 8.738C 15.4513 8.58867 15.274 8.402 15.134 8.178C 14.994 7.94467 14.924 7.65533 14.924 7.31C 14.924 7.03 14.9753 6.76867 15.078 6.526C 15.19 6.274 15.358 6.05467 15.582 5.868C 15.8153 5.672 16.1093 5.52267 16.464 5.42C 16.8187 5.308 17.2433 5.252 17.738 5.252C 18.1673 5.252 18.564 5.28467 18.928 5.35C 19.3013 5.41533 19.6233 5.50867 19.894 5.63L 19.628 7.086C 19.4693 7.03933 19.222 6.96467 18.886 6.862C 18.55 6.75 18.172 6.694 17.752 6.694C 17.3133 6.694 17.0147 6.75 16.856 6.862C 16.7067 6.96467 16.632 7.07667 16.632 7.198C 16.632 7.30067 16.6647 7.394 16.73 7.478C 16.8047 7.55267 16.898 7.62267 17.01 7.688C 17.1313 7.75333 17.2667 7.81867 17.416 7.884C 17.5747 7.94 17.7427 7.996 17.92 8.052C 18.172 8.136 18.4333 8.22933 18.704 8.332C 18.9747 8.43467 19.2173 8.56533 19.432 8.724C 19.656 8.87333 19.838 9.06933 19.978 9.312C 20.118 9.54533 20.188 9.83467 20.188 10.18C 20.188 10.4507 20.1367 10.7073 20.034 10.95C 19.9313 11.1927 19.7587 11.4027 19.516 11.58C 19.2827 11.7573 18.9747 11.8973 18.592 12C 18.2093 12.1027 17.738 12.154 17.178 12.154C 16.6087 12.154 16.1233 12.0887 15.722 11.958C 15.3207 11.8273 14.9987 11.7107 14.756 11.608L 15.022 10.166C 15.3487 10.2967 15.694 10.418 16.058 10.53C 16.4313 10.642 16.8093 10.698 17.192 10.698ZM 24.192 10.698C 24.612 10.698 24.934 10.67 25.158 10.614C 25.382 10.5487 25.494 10.4227 25.494 10.236C 25.494 10.1147 25.4567 10.012 25.382 9.928C 25.3167 9.844 25.2187 9.774 25.088 9.718C 24.9667 9.65267 24.822 9.592 24.654 9.536C 24.4953 9.48 24.3273 9.424 24.15 9.368C 23.898 9.29333 23.6413 9.20933 23.38 9.116C 23.1187 9.01333 22.8807 8.88733 22.666 8.738C 22.4513 8.58867 22.274 8.402 22.134 8.178C 21.994 7.94467 21.924 7.65533 21.924 7.31C 21.924 7.03 21.9753 6.76867 22.078 6.526C 22.19 6.274 22.358 6.05467 22.582 5.868C 22.8153 5.672 23.1093 5.52267 23.464 5.42C 23.8187 5.308 24.2433 5.252 24.738 5.252C 25.1673 5.252 25.564 5.28467 25.928 5.35C 26.3013 5.41533 26.6233 5.50867 26.894 5.63L 26.628 7.086C 26.4693 7.03933 26.222 6.96467 25.886 6.862C 25.55 6.75 25.172 6.694 24.752 6.694C 24.3133 6.694 24.0147 6.75 23.856 6.862C 23.7067 6.96467 23.632 7.07667 23.632 7.198C 23.632 7.30067 23.6647 7.394 23.73 7.478C 23.8047 7.55267 23.898 7.62267 24.01 7.688C 24.1313 7.75333 24.2667 7.81867 24.416 7.884C 24.5747 7.94 24.7427 7.996 24.92 8.052C 25.172 8.136 25.4333 8.22933 25.704 8.332C 25.9747 8.43467 26.2173 8.56533 26.432 8.724C 26.656 8.87333 26.838 9.06933 26.978 9.312C 27.118 9.54533 27.188 9.83467 27.188 10.18C 27.188 10.4507 27.1367 10.7073 27.034 10.95C 26.9313 11.1927 26.7587 11.4027 26.516 11.58C 26.2827 11.7573 25.9747 11.8973 25.592 12C 25.2093 12.1027 24.738 12.154 24.178 12.154C 23.6087 12.154 23.1233 12.0887 22.722 11.958C 22.3207 11.8273 21.9987 11.7107 21.756 11.608L 22.022 10.166C 22.3487 10.2967 22.694 10.418 23.058 10.53C 23.4313 10.642 23.8093 10.698 24.192 10.698ZM 32.508 12C 32.4053 11.7107 32.3073 11.4447 32.214 11.202C 32.13 10.9593 32.046 10.726 31.962 10.502C 31.8873 10.2687 31.808 10.0307 31.724 9.788C 31.6493 9.536 31.57 9.26067 31.486 8.962C 31.3927 9.26067 31.3087 9.53133 31.234 9.774C 31.1593 10.0073 31.08 10.2407 30.996 10.474C 30.9213 10.7073 30.842 10.9453 30.758 11.188C 30.674 11.4307 30.5713 11.7013 30.45 12L 29.148 12C 29.036 11.5893 28.9287 11.1367 28.826 10.642C 28.7327 10.138 28.644 9.606 28.56 9.046C 28.476 8.47667 28.4013 7.88867 28.336 7.282C 28.2707 6.67533 28.21 6.05467 28.154 5.42L 29.624 5.42C 29.6613 6.232 29.6987 7.02533 29.736 7.8C 29.7827 8.57467 29.862 9.37267 29.974 10.194C 30.0953 9.83933 30.198 9.51267 30.282 9.214C 30.3753 8.906 30.4547 8.61667 30.52 8.346C 30.5947 8.066 30.66 7.8 30.716 7.548C 30.7813 7.28667 30.8467 7.02067 30.912 6.75L 32.158 6.75C 32.214 7.02067 32.27 7.28667 32.326 7.548C 32.3913 7.8 32.4567 8.066 32.522 8.346C 32.5967 8.61667 32.6713 8.906 32.746 9.214C 32.83 9.51267 32.928 9.83933 33.04 10.194C 33.096 9.76467 33.1427 9.354 33.18 8.962C 33.2173 8.57 33.2453 8.18267 33.264 7.8C 33.292 7.408 33.3107 7.02067 33.32 6.638C 33.3387 6.246 33.3573 5.84 33.376 5.42L 34.846 5.42C 34.7433 6.69867 34.5987 7.90267 34.412 9.032C 34.2347 10.1613 34.034 11.1507 33.81 12L 32.508 12ZM 41.608 8.696C 41.608 9.21867 41.5333 9.69467 41.384 10.124C 41.2347 10.544 41.0247 10.908 40.754 11.216C 40.4833 11.524 40.1567 11.762 39.774 11.93C 39.4007 12.098 38.9807 12.182 38.514 12.182C 38.0473 12.182 37.6227 12.098 37.24 11.93C 36.8667 11.762 36.54 11.524 36.26 11.216C 35.9893 10.908 35.7793 10.544 35.63 10.124C 35.4807 9.69467 35.406 9.21867 35.406 8.696C 35.406 8.18267 35.4807 7.716 35.63 7.296C 35.7887 6.86667 36.0033 6.50267 36.274 6.204C 36.554 5.896 36.8853 5.66267 37.268 5.504C 37.6507 5.336 38.066 5.252 38.514 5.252C 38.9713 5.252 39.3867 5.336 39.76 5.504C 40.1427 5.66267 40.4693 5.896 40.74 6.204C 41.02 6.50267 41.2347 6.86667 41.384 7.296C 41.5333 7.716 41.608 8.18267 41.608 8.696ZM 37.156 8.71C 37.156 9.298 37.2587 9.774 37.464 10.138C 37.6787 10.502 38.0193 10.684 38.486 10.684C 38.934 10.684 39.27 10.502 39.494 10.138C 39.7273 9.774 39.844 9.298 39.844 8.71C 39.844 8.122 39.7367 7.65067 39.522 7.296C 39.3167 6.932 38.9807 6.75 38.514 6.75C 38.066 6.75 37.7253 6.932 37.492 7.296C 37.268 7.65067 37.156 8.122 37.156 8.71ZM 48.118 7.17C 48.006 7.142 47.8707 7.114 47.712 7.086C 47.5627 7.058 47.4087 7.03467 47.25 7.016C 47.0913 6.988 46.9373 6.96933 46.788 6.96C 46.6387 6.95067 46.5127 6.946 46.41 6.946C 46.1673 6.946 45.9293 6.96 45.696 6.988C 45.4627 7.00667 45.2247 7.04867 44.982 7.114L 44.982 12L 43.246 12L 43.246 5.854C 43.7033 5.686 44.17 5.55067 44.646 5.448C 45.1313 5.34533 45.696 5.294 46.34 5.294C 46.4333 5.294 46.564 5.29867 46.732 5.308C 46.9093 5.31733 47.096 5.336 47.292 5.364C 47.488 5.38267 47.684 5.41067 47.88 5.448C 48.0853 5.476 48.2673 5.518 48.426 5.574L 48.118 7.17ZM 51.142 8.668C 51.142 9.256 51.2493 9.73667 51.464 10.11C 51.688 10.4833 52.0427 10.67 52.528 10.67C 52.668 10.67 52.7987 10.6653 52.92 10.656C 53.0413 10.6467 53.1673 10.6327 53.298 10.614L 53.298 7.03C 53.1673 6.95533 53.018 6.89467 52.85 6.848C 52.682 6.792 52.5047 6.764 52.318 6.764C 51.9073 6.764 51.6087 6.92733 51.422 7.254C 51.2353 7.58067 51.142 8.052 51.142 8.668ZM 55.02 11.804C 54.7027 11.9067 54.3153 11.9907 53.858 12.056C 53.4007 12.1213 52.9527 12.154 52.514 12.154C 51.4873 12.154 50.708 11.8507 50.176 11.244C 49.6533 10.6373 49.392 9.80667 49.392 8.752C 49.392 7.67867 49.6113 6.834 50.05 6.218C 50.498 5.59267 51.156 5.28 52.024 5.28C 52.2573 5.28 52.486 5.308 52.71 5.364C 52.934 5.41067 53.13 5.48067 53.298 5.574L 53.298 2.578L 55.02 2.284L 55.02 11.804Z"/>
<path id="path16_fill" d="M 17 42L 19 44L 44 44L 48 48L 10 48L 0 38.0685L 0 0L 4 4L 4 14L 6.98185 17L 7 32L 14 39L 25 39L 28 42L 17 42Z"/>
<path id="path17_fill" d="M 4 33L 0 37L 0 45L 4 41L 4 33Z"/>
<path id="path18_fill" d="M 4 45L 0 49L 0 59L 4 55L 4 45Z"/>
<path id="path19_fill" d="M 4 26L 0 30L 0 34L 4 30L 4 26Z"/>
<path id="path20_fill" d="M 0 18L 18 0L 50 0L 52 2L 66 2L 70 6L 22 6L 0 28L 0 18Z"/>
<path id="path21_fill" d="M 87 36L 93 30L 93 0L 97 3.99999L 97 18L 99 20L 99 34L 88 45L 39 45L 34 40L 4 40L 0 36L 87 36Z"/>
<path id="path22_fill" d="M 1.092 10L 1.092 2.572L 5.304 2.572L 5.304 3.412L 2.076 3.412L 2.076 5.728L 4.92 5.728L 4.92 6.556L 2.076 6.556L 2.076 10L 1.092 10ZM 11.52 7.216C 11.52 7.656 11.456 8.056 11.328 8.416C 11.208 8.768 11.036 9.072 10.812 9.328C 10.588 9.584 10.32 9.784 10.008 9.928C 9.696 10.064 9.356 10.132 8.988 10.132C 8.628 10.132 8.292 10.064 7.98 9.928C 7.676 9.784 7.412 9.584 7.188 9.328C 6.964 9.072 6.788 8.768 6.66 8.416C 6.54 8.056 6.48 7.656 6.48 7.216C 6.48 6.776 6.54 6.376 6.66 6.016C 6.788 5.656 6.964 5.352 7.188 5.104C 7.412 4.848 7.676 4.652 7.98 4.516C 8.292 4.372 8.628 4.3 8.988 4.3C 9.356 4.3 9.696 4.372 10.008 4.516C 10.32 4.652 10.588 4.848 10.812 5.104C 11.036 5.352 11.208 5.656 11.328 6.016C 11.456 6.376 11.52 6.776 11.52 7.216ZM 10.5 7.216C 10.5 6.584 10.364 6.088 10.092 5.728C 9.82 5.36 9.452 5.176 8.988 5.176C 8.532 5.176 8.168 5.36 7.896 5.728C 7.632 6.088 7.5 6.584 7.5 7.216C 7.5 7.84 7.632 8.336 7.896 8.704C 8.168 9.064 8.532 9.244 8.988 9.244C 9.452 9.244 9.82 9.064 10.092 8.704C 10.364 8.336 10.5 7.84 10.5 7.216ZM 17.148 9.844C 16.932 9.9 16.644 9.96 16.284 10.024C 15.932 10.088 15.516 10.12 15.036 10.12C 14.612 10.12 14.26 10.06 13.98 9.94C 13.7 9.812 13.472 9.636 13.296 9.412C 13.12 9.18 12.996 8.908 12.924 8.596C 12.852 8.284 12.816 7.94 12.816 7.564L 12.816 4.432L 13.8 4.432L 13.8 7.348C 13.8 8.036 13.9 8.524 14.1 8.812C 14.308 9.1 14.652 9.244 15.132 9.244C 15.236 9.244 15.34 9.24 15.444 9.232C 15.556 9.224 15.66 9.216 15.756 9.208C 15.852 9.192 15.936 9.18 16.008 9.172C 16.08 9.156 16.128 9.144 16.152 9.136L 16.152 4.432L 17.148 4.432L 17.148 9.844ZM 19.284 10L 19.284 4.732C 20.1 4.452 20.924 4.312 21.756 4.312C 22.012 4.312 22.256 4.324 22.488 4.348C 22.72 4.364 22.976 4.404 23.256 4.468L 23.076 5.344C 22.82 5.272 22.592 5.228 22.392 5.212C 22.2 5.188 21.988 5.176 21.756 5.176C 21.268 5.176 20.772 5.244 20.268 5.38L 20.268 10L 19.284 10ZM 32.916 4.432L 35.268 4.432L 35.268 5.26L 32.916 5.26L 32.916 7.852C 32.916 8.132 32.936 8.36 32.976 8.536C 33.016 8.712 33.08 8.856 33.168 8.968C 33.264 9.072 33.384 9.144 33.528 9.184C 33.672 9.224 33.848 9.244 34.056 9.244C 34.344 9.244 34.576 9.22 34.752 9.172C 34.928 9.124 35.096 9.06 35.256 8.98L 35.4 9.82C 35.288 9.868 35.108 9.932 34.86 10.012C 34.62 10.092 34.32 10.132 33.96 10.132C 33.544 10.132 33.204 10.084 32.94 9.988C 32.676 9.892 32.468 9.748 32.316 9.556C 32.172 9.364 32.072 9.128 32.016 8.848C 31.96 8.56 31.932 8.228 31.932 7.852L 31.932 5.26L 30.756 5.26L 30.756 4.432L 31.932 4.432L 31.932 2.872L 32.916 2.704L 32.916 4.432ZM 37.284 10L 37.284 4.732C 38.1 4.452 38.924 4.312 39.756 4.312C 40.012 4.312 40.256 4.324 40.488 4.348C 40.72 4.364 40.976 4.404 41.256 4.468L 41.076 5.344C 40.82 5.272 40.592 5.228 40.392 5.212C 40.2 5.188 39.988 5.176 39.756 5.176C 39.268 5.176 38.772 5.244 38.268 5.38L 38.268 10L 37.284 10ZM 44.508 3.568C 44.3 3.568 44.12 3.496 43.968 3.352C 43.816 3.208 43.74 3.012 43.74 2.764C 43.74 2.516 43.816 2.32 43.968 2.176C 44.12 2.032 44.3 1.96 44.508 1.96C 44.724 1.96 44.904 2.032 45.048 2.176C 45.2 2.32 45.276 2.516 45.276 2.764C 45.276 3.012 45.2 3.208 45.048 3.352C 44.904 3.496 44.724 3.568 44.508 3.568ZM 44.256 5.26L 42.648 5.26L 42.648 4.432L 45.24 4.432L 45.24 7.852C 45.24 8.404 45.316 8.776 45.468 8.968C 45.62 9.152 45.848 9.244 46.152 9.244C 46.384 9.244 46.596 9.216 46.788 9.16C 46.988 9.104 47.144 9.044 47.256 8.98L 47.4 9.82C 47.352 9.844 47.284 9.876 47.196 9.916C 47.108 9.948 47.004 9.98 46.884 10.012C 46.772 10.044 46.644 10.072 46.5 10.096C 46.364 10.12 46.22 10.132 46.068 10.132C 45.716 10.132 45.424 10.084 45.192 9.988C 44.96 9.892 44.772 9.748 44.628 9.556C 44.492 9.364 44.396 9.128 44.34 8.848C 44.284 8.56 44.256 8.228 44.256 7.852L 44.256 5.26ZM 51.108 4.3C 51.86 4.3 52.44 4.536 52.848 5.008C 53.256 5.472 53.46 6.18 53.46 7.132L 53.46 7.48L 49.476 7.48C 49.516 8.056 49.704 8.496 50.04 8.8C 50.384 9.096 50.864 9.244 51.48 9.244C 51.832 9.244 52.132 9.216 52.38 9.16C 52.628 9.104 52.816 9.044 52.944 8.98L 53.076 9.82C 52.956 9.884 52.74 9.952 52.428 10.024C 52.116 10.096 51.764 10.132 51.372 10.132C 50.892 10.132 50.468 10.06 50.1 9.916C 49.74 9.764 49.44 9.56 49.2 9.304C 48.96 9.048 48.78 8.744 48.66 8.392C 48.54 8.032 48.48 7.644 48.48 7.228C 48.48 6.732 48.556 6.3 48.708 5.932C 48.86 5.564 49.06 5.26 49.308 5.02C 49.556 4.78 49.836 4.6 50.148 4.48C 50.46 4.36 50.78 4.3 51.108 4.3ZM 52.452 6.676C 52.452 6.204 52.328 5.832 52.08 5.56C 51.832 5.28 51.504 5.14 51.096 5.14C 50.864 5.14 50.652 5.184 50.46 5.272C 50.276 5.36 50.116 5.476 49.98 5.62C 49.844 5.764 49.736 5.928 49.656 6.112C 49.576 6.296 49.524 6.484 49.5 6.676L 52.452 6.676ZM 58.212 8.608C 58.212 8.408 58.128 8.244 57.96 8.116C 57.8 7.988 57.596 7.876 57.348 7.78C 57.108 7.684 56.844 7.592 56.556 7.504C 56.268 7.408 56 7.292 55.752 7.156C 55.512 7.02 55.308 6.852 55.14 6.652C 54.98 6.452 54.9 6.192 54.9 5.872C 54.9 5.424 55.08 5.052 55.44 4.756C 55.808 4.452 56.38 4.3 57.156 4.3C 57.46 4.3 57.772 4.324 58.092 4.372C 58.42 4.412 58.7 4.468 58.932 4.54L 58.752 5.428C 58.688 5.396 58.6 5.364 58.488 5.332C 58.376 5.292 58.248 5.26 58.104 5.236C 57.96 5.204 57.804 5.18 57.636 5.164C 57.476 5.148 57.32 5.14 57.168 5.14C 56.304 5.14 55.872 5.376 55.872 5.848C 55.872 6.016 55.952 6.16 56.112 6.28C 56.28 6.392 56.488 6.496 56.736 6.592C 56.984 6.688 57.252 6.788 57.54 6.892C 57.828 6.988 58.096 7.108 58.344 7.252C 58.592 7.396 58.796 7.572 58.956 7.78C 59.124 7.98 59.208 8.236 59.208 8.548C 59.208 9.052 59.012 9.444 58.62 9.724C 58.228 9.996 57.608 10.132 56.76 10.132C 56.376 10.132 56.024 10.1 55.704 10.036C 55.384 9.972 55.08 9.876 54.792 9.748L 54.984 8.848C 55.264 8.976 55.556 9.084 55.86 9.172C 56.172 9.252 56.504 9.292 56.856 9.292C 57.76 9.292 58.212 9.064 58.212 8.608ZM 67.284 10L 67.284 4.732C 68.1 4.452 68.924 4.312 69.756 4.312C 70.012 4.312 70.256 4.324 70.488 4.348C 70.72 4.364 70.976 4.404 71.256 4.468L 71.076 5.344C 70.82 5.272 70.592 5.228 70.392 5.212C 70.2 5.188 69.988 5.176 69.756 5.176C 69.268 5.176 68.772 5.244 68.268 5.38L 68.268 10L 67.284 10ZM 75.108 4.3C 75.86 4.3 76.44 4.536 76.848 5.008C 77.256 5.472 77.46 6.18 77.46 7.132L 77.46 7.48L 73.476 7.48C 73.516 8.056 73.704 8.496 74.04 8.8C 74.384 9.096 74.864 9.244 75.48 9.244C 75.832 9.244 76.132 9.216 76.38 9.16C 76.628 9.104 76.816 9.044 76.944 8.98L 77.076 9.82C 76.956 9.884 76.74 9.952 76.428 10.024C 76.116 10.096 75.764 10.132 75.372 10.132C 74.892 10.132 74.468 10.06 74.1 9.916C 73.74 9.764 73.44 9.56 73.2 9.304C 72.96 9.048 72.78 8.744 72.66 8.392C 72.54 8.032 72.48 7.644 72.48 7.228C 72.48 6.732 72.556 6.3 72.708 5.932C 72.86 5.564 73.06 5.26 73.308 5.02C 73.556 4.78 73.836 4.6 74.148 4.48C 74.46 4.36 74.78 4.3 75.108 4.3ZM 76.452 6.676C 76.452 6.204 76.328 5.832 76.08 5.56C 75.832 5.28 75.504 5.14 75.096 5.14C 74.864 5.14 74.652 5.184 74.46 5.272C 74.276 5.36 74.116 5.476 73.98 5.62C 73.844 5.764 73.736 5.928 73.656 6.112C 73.576 6.296 73.524 6.484 73.5 6.676L 76.452 6.676ZM 78.492 4.588C 78.972 4.404 79.424 4.312 79.848 4.312C 80.08 4.312 80.296 4.348 80.496 4.42C 80.704 4.484 80.88 4.588 81.024 4.732C 81.368 4.452 81.736 4.312 82.128 4.312C 82.32 4.312 82.5 4.348 82.668 4.42C 82.844 4.492 82.996 4.6 83.124 4.744C 83.26 4.888 83.368 5.068 83.448 5.284C 83.528 5.5 83.568 5.752 83.568 6.04L 83.568 10L 82.668 10L 82.668 6.016C 82.668 5.728 82.604 5.508 82.476 5.356C 82.348 5.204 82.188 5.128 81.996 5.128C 81.9 5.128 81.8 5.152 81.696 5.2C 81.592 5.248 81.496 5.324 81.408 5.428C 81.456 5.612 81.48 5.816 81.48 6.04L 81.48 7.852L 80.58 7.852L 80.58 6.028C 80.58 5.748 80.536 5.528 80.448 5.368C 80.36 5.208 80.188 5.128 79.932 5.128C 79.772 5.128 79.592 5.164 79.392 5.236L 79.392 10L 78.492 10L 78.492 4.588ZM 87.06 9.292C 87.308 9.292 87.528 9.284 87.72 9.268C 87.92 9.252 88.084 9.232 88.212 9.208L 88.212 7.552C 88.084 7.512 87.928 7.48 87.744 7.456C 87.568 7.432 87.38 7.42 87.18 7.42C 86.996 7.42 86.816 7.436 86.64 7.468C 86.464 7.492 86.308 7.54 86.172 7.612C 86.036 7.684 85.924 7.78 85.836 7.9C 85.748 8.012 85.704 8.156 85.704 8.332C 85.704 8.692 85.824 8.944 86.064 9.088C 86.312 9.224 86.644 9.292 87.06 9.292ZM 86.964 4.3C 87.38 4.3 87.728 4.352 88.008 4.456C 88.296 4.56 88.528 4.704 88.704 4.888C 88.88 5.072 89.004 5.296 89.076 5.56C 89.148 5.824 89.184 6.112 89.184 6.424L 89.184 9.904C 88.952 9.944 88.644 9.992 88.26 10.048C 87.884 10.104 87.496 10.132 87.096 10.132C 86.792 10.132 86.496 10.104 86.208 10.048C 85.92 10 85.664 9.912 85.44 9.784C 85.216 9.648 85.036 9.464 84.9 9.232C 84.764 9 84.696 8.704 84.696 8.344C 84.696 8.024 84.764 7.756 84.9 7.54C 85.044 7.316 85.224 7.136 85.44 7C 85.664 6.864 85.916 6.768 86.196 6.712C 86.484 6.648 86.772 6.616 87.06 6.616C 87.452 6.616 87.836 6.66 88.212 6.748L 88.212 6.472C 88.212 6.304 88.192 6.144 88.152 5.992C 88.12 5.832 88.052 5.688 87.948 5.56C 87.852 5.432 87.716 5.332 87.54 5.26C 87.372 5.18 87.152 5.14 86.88 5.14C 86.536 5.14 86.236 5.164 85.98 5.212C 85.724 5.26 85.528 5.308 85.392 5.356L 85.272 4.54C 85.408 4.476 85.632 4.42 85.944 4.372C 86.264 4.324 86.604 4.3 86.964 4.3ZM 92.508 3.568C 92.3 3.568 92.12 3.496 91.968 3.352C 91.816 3.208 91.74 3.012 91.74 2.764C 91.74 2.516 91.816 2.32 91.968 2.176C 92.12 2.032 92.3 1.96 92.508 1.96C 92.724 1.96 92.904 2.032 93.048 2.176C 93.2 2.32 93.276 2.516 93.276 2.764C 93.276 3.012 93.2 3.208 93.048 3.352C 92.904 3.496 92.724 3.568 92.508 3.568ZM 92.256 5.26L 90.648 5.26L 90.648 4.432L 93.24 4.432L 93.24 7.852C 93.24 8.404 93.316 8.776 93.468 8.968C 93.62 9.152 93.848 9.244 94.152 9.244C 94.384 9.244 94.596 9.216 94.788 9.16C 94.988 9.104 95.144 9.044 95.256 8.98L 95.4 9.82C 95.352 9.844 95.284 9.876 95.196 9.916C 95.108 9.948 95.004 9.98 94.884 10.012C 94.772 10.044 94.644 10.072 94.5 10.096C 94.364 10.12 94.22 10.132 94.068 10.132C 93.716 10.132 93.424 10.084 93.192 9.988C 92.96 9.892 92.772 9.748 92.628 9.556C 92.492 9.364 92.396 9.128 92.34 8.848C 92.284 8.56 92.256 8.228 92.256 7.852L 92.256 5.26ZM 96.852 4.588C 97.212 4.5 97.568 4.432 97.92 4.384C 98.28 4.336 98.616 4.312 98.928 4.312C 99.672 4.312 100.232 4.504 100.608 4.888C 100.992 5.272 101.184 5.888 101.184 6.736L 101.184 10L 100.2 10L 100.2 6.916C 100.2 6.556 100.168 6.264 100.104 6.04C 100.04 5.816 99.948 5.644 99.828 5.524C 99.716 5.396 99.576 5.308 99.408 5.26C 99.248 5.212 99.072 5.188 98.88 5.188C 98.72 5.188 98.548 5.2 98.364 5.224C 98.188 5.24 98.016 5.264 97.848 5.296L 97.848 10L 96.852 10L 96.852 4.588ZM 104.508 3.568C 104.3 3.568 104.12 3.496 103.968 3.352C 103.816 3.208 103.74 3.012 103.74 2.764C 103.74 2.516 103.816 2.32 103.968 2.176C 104.12 2.032 104.3 1.96 104.508 1.96C 104.724 1.96 104.904 2.032 105.048 2.176C 105.2 2.32 105.276 2.516 105.276 2.764C 105.276 3.012 105.2 3.208 105.048 3.352C 104.904 3.496 104.724 3.568 104.508 3.568ZM 104.256 5.26L 102.648 5.26L 102.648 4.432L 105.24 4.432L 105.24 7.852C 105.24 8.404 105.316 8.776 105.468 8.968C 105.62 9.152 105.848 9.244 106.152 9.244C 106.384 9.244 106.596 9.216 106.788 9.16C 106.988 9.104 107.144 9.044 107.256 8.98L 107.4 9.82C 107.352 9.844 107.284 9.876 107.196 9.916C 107.108 9.948 107.004 9.98 106.884 10.012C 106.772 10.044 106.644 10.072 106.5 10.096C 106.364 10.12 106.22 10.132 106.068 10.132C 105.716 10.132 105.424 10.084 105.192 9.988C 104.96 9.892 104.772 9.748 104.628 9.556C 104.492 9.364 104.396 9.128 104.34 8.848C 104.284 8.56 104.256 8.228 104.256 7.852L 104.256 5.26ZM 108.852 4.588C 109.212 4.5 109.568 4.432 109.92 4.384C 110.28 4.336 110.616 4.312 110.928 4.312C 111.672 4.312 112.232 4.504 112.608 4.888C 112.992 5.272 113.184 5.888 113.184 6.736L 113.184 10L 112.2 10L 112.2 6.916C 112.2 6.556 112.168 6.264 112.104 6.04C 112.04 5.816 111.948 5.644 111.828 5.524C 111.716 5.396 111.576 5.308 111.408 5.26C 111.248 5.212 111.072 5.188 110.88 5.188C 110.72 5.188 110.548 5.2 110.364 5.224C 110.188 5.24 110.016 5.264 109.848 5.296L 109.848 10L 108.852 10L 108.852 4.588ZM 118.152 9.484C 118.04 9.548 117.868 9.616 117.636 9.688C 117.404 9.76 117.136 9.796 116.832 9.796C 116.504 9.796 116.196 9.744 115.908 9.64C 115.628 9.528 115.38 9.364 115.164 9.148C 114.956 8.924 114.788 8.644 114.66 8.308C 114.54 7.964 114.48 7.56 114.48 7.096C 114.48 6.688 114.536 6.316 114.648 5.98C 114.768 5.636 114.936 5.34 115.152 5.092C 115.376 4.844 115.648 4.652 115.968 4.516C 116.288 4.372 116.652 4.3 117.06 4.3C 117.54 4.3 117.948 4.336 118.284 4.408C 118.628 4.472 118.916 4.536 119.148 4.6L 119.148 9.568C 119.148 10.432 118.928 11.056 118.488 11.44C 118.056 11.824 117.4 12.016 116.52 12.016C 116.16 12.016 115.832 11.988 115.536 11.932C 115.248 11.876 114.992 11.808 114.768 11.728L 114.948 10.852C 115.156 10.94 115.392 11.012 115.656 11.068C 115.928 11.124 116.224 11.152 116.544 11.152C 117.12 11.152 117.532 11.036 117.78 10.804C 118.028 10.572 118.152 10.196 118.152 9.676L 118.152 9.484ZM 118.152 5.308C 118.056 5.276 117.924 5.248 117.756 5.224C 117.588 5.192 117.36 5.176 117.072 5.176C 116.56 5.176 116.168 5.352 115.896 5.704C 115.632 6.056 115.5 6.524 115.5 7.108C 115.5 7.428 115.536 7.704 115.608 7.936C 115.688 8.16 115.792 8.348 115.92 8.5C 116.056 8.644 116.208 8.752 116.376 8.824C 116.544 8.888 116.724 8.92 116.916 8.92C 117.164 8.92 117.396 8.884 117.612 8.812C 117.836 8.74 118.016 8.656 118.152 8.56L 118.152 5.308Z"/>
</defs>
</svg>
