<svg width="290" height="107" viewBox="0 0 290 107" version="1.1" xmlns="http://www.w3.org/2000/svg" xmlns:xlink="http://www.w3.org/1999/xlink">
<title>Group</title>
<desc>Created using Figma</desc>
<g id="Canvas" transform="translate(-2324 94)">
<g id="Group">
<g id="crs1">
<g id="Subtract">
<use xlink:href="#path0_fill" transform="matrix(1 0 0 -1 2333 4)" fill="#33B5E5"/>
</g>
</g>
<g id="crs4">
<g id="Vector">
<use xlink:href="#path1_fill" transform="matrix(-1 0 0 -1 2606 5)" fill="#33B5E5"/>
</g>
</g>
<g id="crs4">
<g id="Vector">
<use xlink:href="#path2_fill" transform="matrix(-1 0 -0 -1 2600 -60)" fill="#33B5E5"/>
<use xlink:href="#path3_fill" transform="matrix(-1 0 -0 -1 2600 -60)" fill="#33B5E5"/>
<use xlink:href="#path4_fill" transform="matrix(-1 0 -0 -1 2600 -60)" fill="#33B5E5"/>
<use xlink:href="#path5_fill" transform="matrix(-1 0 -0 -1 2600 -60)" fill="#33B5E5"/>
<use xlink:href="#path6_fill" transform="matrix(-1 0 -0 -1 2600 -60)" fill="#33B5E5"/>
<use xlink:href="#path7_fill" transform="matrix(-1 0 -0 -1 2600 -60)" fill="#33B5E5"/>
<use xlink:href="#path8_fill" transform="matrix(-1 0 -0 -1 2600 -60)" fill="#33B5E5"/>
<use xlink:href="#path9_fill" transform="matrix(-1 0 -0 -1 2600 -60)" fill="#33B5E5"/>
<use xlink:href="#path10_fill" transform="matrix(-1 0 -0 -1 2600 -60)" fill="#33B5E5"/>
<use xlink:href="#path11_fill" transform="matrix(-1 0 -0 -1 2600 -60)" fill="#33B5E5"/>
<use xlink:href="#path12_fill" transform="matrix(-1 0 -0 -1 2600 -60)" fill="#33B5E5"/>
<use xlink:href="#path13_fill" transform="matrix(-1 0 -0 -1 2600 -60)" fill="#33B5E5"/>
<use xlink:href="#path14_fill" transform="matrix(-1 0 -0 -1 2600 -60)" fill="#33B5E5"/>
<use xlink:href="#path15_fill" transform="matrix(-1 0 -0 -1 2600 -60)" fill="#33B5E5"/>
</g>
</g>
<g id="Rectangle" filter="url(#filter0_d)">
<use xlink:href="#path16_fill" transform="translate(2360 -59)" fill="#0A0C0D"/>
</g>
<g id="crs header">
<g id="Vector">
<use xlink:href="#path17_fill" transform="translate(2336 -94)" fill="#33B5E5"/>
</g>
<g id="Vector">
<use xlink:href="#path18_fill" transform="translate(2433 -90)" fill="#33B5E5"/>
</g>
<g id="Rectangle">
<use xlink:href="#path19_fill" transform="translate(2379 -90)" fill="#33B5E5"/>
</g>
<g id="password">
<use xlink:href="#path20_fill" transform="translate(2360 -78)" fill="#33B5E5"/>
</g>
</g>
</g>
</g>
<defs>
<filter id="filter0_d" filterUnits="userSpaceOnUse" x="2354" y="-65" width="219" height="48" color-interpolation-filters="sRGB">
<feFlood flood-opacity="0" result="BackgroundImageFix"/>
<feColorMatrix in="SourceAlpha" type="matrix" values="0 0 0 0 0 0 0 0 0 0 0 0 0 0 0 0 0 0 255 0"/>
<feOffset dx="0" dy="0"/>
<feGaussianBlur stdDeviation="3"/>
<feColorMatrix type="matrix" values="0 0 0 0 0.2 0 0 0 0 0.709804 0 0 0 0 0.898039 0 0 0 0.25 0"/>
<feBlend mode="normal" in2="BackgroundImageFix" result="effect1_dropShadow"/>
<feBlend mode="normal" in="SourceGraphic" in2="effect1_dropShadow" result="shape"/>
</filter>
<path id="path0_fill" fill-rule="evenodd" d="M 5 28L 5 42L 9 46L 9 20L 20 9L 58 9L 54 5L 38 5L 33 0L 9 0L 0 9L 0 23L 5 28ZM 2.01739 11L 8 5L 10 5L 2.01739 13L 2.01739 11Z"/>
<path id="path1_fill" d="M 141 6L 40 6L 34 0L 10 0L 0 10L 0 34L 6 40L 6 52L 10 48L 10 16L 16 10L 145 10L 141 6Z"/>
<path id="path2_fill" d="M 56 20L 60 20L 64 16L 60 16L 56 20Z"/>
<path id="path3_fill" d="M 50 20L 54 20L 58 16L 54 16L 50 20Z"/>
<path id="path4_fill" d="M 44 20L 48 20L 52 16L 48 16L 44 20Z"/>
<path id="path5_fill" d="M 38 20L 42 20L 46 16L 42 16L 38 20Z"/>
<path id="path6_fill" d="M 32 20L 36 20L 40 16L 36 16L 32 20Z"/>
<path id="path7_fill" d="M 26 20L 30 20L 34 16L 30 16L 26 20Z"/>
<path id="path8_fill" d="M 20 20L 24 20L 28 16L 24 16L 20 20Z"/>
<path id="path9_fill" d="M 14 20L 18 20L 22 16L 18 16L 14 20Z"/>
<path id="path10_fill" d="M 8 20L 12 20L 16 16L 12 16L 8 20Z"/>
<path id="path11_fill" d="M 3 19L 4 20L 6 20L 10 16L 6 16L 3 19Z"/>
<path id="path12_fill" d="M 4 12L 0 16L 2 18L 5 15L 4 14L 4 12Z"/>
<path id="path13_fill" d="M 0 10L 0 14L 4 10L 4 6L 0 10Z"/>
<path id="path14_fill" d="M 0 4L 0 8L 4 4L 4 0L 0 4Z"/>
<path id="path15_fill" d="M 62 20L 66 16L 94 16L 90 20L 78 20L 72 26L 36 26L 32 22L 70 22L 72 20L 62 20Z"/>
<path id="path16_fill" d="M 0 2C 0 0.895431 0.895431 0 2 0L 205 0C 206.105 0 207 0.895431 207 2L 207 34C 207 35.1046 206.105 36 205 36L 2 36C 0.895434 36 0 35.1046 0 34L 0 2Z"/>
<path id="path17_fill" d="M 8 33L 6 35L 6 54L 2 57L 2 43L 0 41L 0 20L 20 0L 34.4 0L 38.4 4L 43 4L 43 8L 23 8L 8 23L 8 33Z"/>
<path id="path18_fill" d="M 16 14L 6 4L 0 4L 0 0L 8 0L 18 10L 39 10L 43 14L 16 14Z"/>
<path id="path19_fill" d="M 0 0L 54 0L 54 4L 0 4L 0 0Z"/>
<path id="path20_fill" d="M 4.816 8.766C 4.816 8.178 4.69933 7.69733 4.466 7.324C 4.23267 6.94133 3.878 6.75 3.402 6.75C 3.27133 6.75 3.13133 6.75933 2.982 6.778C 2.83267 6.78733 2.70667 6.79667 2.604 6.806L 2.604 10.418C 2.716 10.4927 2.86533 10.5533 3.052 10.6C 3.23867 10.6467 3.42533 10.67 3.612 10.67C 4.02267 10.67 4.326 10.5067 4.522 10.18C 4.718 9.844 4.816 9.37267 4.816 8.766ZM 6.566 8.71C 6.566 9.214 6.51 9.68067 6.398 10.11C 6.286 10.53 6.12267 10.894 5.908 11.202C 5.69333 11.5007 5.42267 11.734 5.096 11.902C 4.76933 12.07 4.39133 12.154 3.962 12.154C 3.52333 12.154 3.07067 12.0467 2.604 11.832L 2.604 14.31L 0.882 14.31L 0.882 5.63C 1.19933 5.52733 1.58667 5.44333 2.044 5.378C 2.51067 5.31267 2.968 5.28 3.416 5.28C 4.43333 5.28 5.21267 5.588 5.754 6.204C 6.29533 6.82 6.566 7.65533 6.566 8.71ZM 10.514 10.768C 10.7007 10.768 10.8827 10.768 11.06 10.768C 11.2373 10.7587 11.3913 10.7447 11.522 10.726L 11.522 9.214C 11.41 9.19533 11.2747 9.18133 11.116 9.172C 10.9573 9.15333 10.8127 9.144 10.682 9.144C 10.5047 9.144 10.332 9.158 10.164 9.186C 9.996 9.20467 9.84667 9.242 9.716 9.298C 9.59467 9.354 9.49667 9.43333 9.422 9.536C 9.34733 9.63867 9.31 9.774 9.31 9.942C 9.31 10.2407 9.422 10.4553 9.646 10.586C 9.87 10.7073 10.1593 10.768 10.514 10.768ZM 10.36 5.252C 10.9013 5.252 11.3493 5.31733 11.704 5.448C 12.068 5.56933 12.3573 5.74667 12.572 5.98C 12.7867 6.204 12.9407 6.484 13.034 6.82C 13.1273 7.14667 13.174 7.51533 13.174 7.926L 13.174 11.846C 12.922 11.902 12.5487 11.9673 12.054 12.042C 11.5593 12.1167 11.004 12.154 10.388 12.154C 9.968 12.154 9.58533 12.1167 9.24 12.042C 8.904 11.9673 8.61467 11.846 8.372 11.678C 8.12933 11.5007 7.94267 11.2767 7.812 11.006C 7.68133 10.726 7.616 10.3853 7.616 9.984C 7.616 9.60133 7.69067 9.27933 7.84 9.018C 7.98933 8.75667 8.19 8.54667 8.442 8.388C 8.694 8.22933 8.98333 8.11733 9.31 8.052C 9.63667 7.97733 9.97733 7.94 10.332 7.94C 10.78 7.94 11.1767 7.97733 11.522 8.052L 11.522 7.842C 11.522 7.51533 11.4193 7.24467 11.214 7.03C 11.0087 6.806 10.654 6.694 10.15 6.694C 9.82333 6.694 9.506 6.71733 9.198 6.764C 8.89933 6.81067 8.65667 6.86667 8.47 6.932L 8.232 5.546C 8.44667 5.47133 8.75 5.406 9.142 5.35C 9.534 5.28467 9.94 5.252 10.36 5.252ZM 17.192 10.698C 17.612 10.698 17.934 10.67 18.158 10.614C 18.382 10.5487 18.494 10.4227 18.494 10.236C 18.494 10.1147 18.4567 10.012 18.382 9.928C 18.3167 9.844 18.2187 9.774 18.088 9.718C 17.9667 9.65267 17.822 9.592 17.654 9.536C 17.4953 9.48 17.3273 9.424 17.15 9.368C 16.898 9.29333 16.6413 9.20933 16.38 9.116C 16.1187 9.01333 15.8807 8.88733 15.666 8.738C 15.4513 8.58867 15.274 8.402 15.134 8.178C 14.994 7.94467 14.924 7.65533 14.924 7.31C 14.924 7.03 14.9753 6.76867 15.078 6.526C 15.19 6.274 15.358 6.05467 15.582 5.868C 15.8153 5.672 16.1093 5.52267 16.464 5.42C 16.8187 5.308 17.2433 5.252 17.738 5.252C 18.1673 5.252 18.564 5.28467 18.928 5.35C 19.3013 5.41533 19.6233 5.50867 19.894 5.63L 19.628 7.086C 19.4693 7.03933 19.222 6.96467 18.886 6.862C 18.55 6.75 18.172 6.694 17.752 6.694C 17.3133 6.694 17.0147 6.75 16.856 6.862C 16.7067 6.96467 16.632 7.07667 16.632 7.198C 16.632 7.30067 16.6647 7.394 16.73 7.478C 16.8047 7.55267 16.898 7.62267 17.01 7.688C 17.1313 7.75333 17.2667 7.81867 17.416 7.884C 17.5747 7.94 17.7427 7.996 17.92 8.052C 18.172 8.136 18.4333 8.22933 18.704 8.332C 18.9747 8.43467 19.2173 8.56533 19.432 8.724C 19.656 8.87333 19.838 9.06933 19.978 9.312C 20.118 9.54533 20.188 9.83467 20.188 10.18C 20.188 10.4507 20.1367 10.7073 20.034 10.95C 19.9313 11.1927 19.7587 11.4027 19.516 11.58C 19.2827 11.7573 18.9747 11.8973 18.592 12C 18.2093 12.1027 17.738 12.154 17.178 12.154C 16.6087 12.154 16.1233 12.0887 15.722 11.958C 15.3207 11.8273 14.9987 11.7107 14.756 11.608L 15.022 10.166C 15.3487 10.2967 15.694 10.418 16.058 10.53C 16.4313 10.642 16.8093 10.698 17.192 10.698ZM 24.192 10.698C 24.612 10.698 24.934 10.67 25.158 10.614C 25.382 10.5487 25.494 10.4227 25.494 10.236C 25.494 10.1147 25.4567 10.012 25.382 9.928C 25.3167 9.844 25.2187 9.774 25.088 9.718C 24.9667 9.65267 24.822 9.592 24.654 9.536C 24.4953 9.48 24.3273 9.424 24.15 9.368C 23.898 9.29333 23.6413 9.20933 23.38 9.116C 23.1187 9.01333 22.8807 8.88733 22.666 8.738C 22.4513 8.58867 22.274 8.402 22.134 8.178C 21.994 7.94467 21.924 7.65533 21.924 7.31C 21.924 7.03 21.9753 6.76867 22.078 6.526C 22.19 6.274 22.358 6.05467 22.582 5.868C 22.8153 5.672 23.1093 5.52267 23.464 5.42C 23.8187 5.308 24.2433 5.252 24.738 5.252C 25.1673 5.252 25.564 5.28467 25.928 5.35C 26.3013 5.41533 26.6233 5.50867 26.894 5.63L 26.628 7.086C 26.4693 7.03933 26.222 6.96467 25.886 6.862C 25.55 6.75 25.172 6.694 24.752 6.694C 24.3133 6.694 24.0147 6.75 23.856 6.862C 23.7067 6.96467 23.632 7.07667 23.632 7.198C 23.632 7.30067 23.6647 7.394 23.73 7.478C 23.8047 7.55267 23.898 7.62267 24.01 7.688C 24.1313 7.75333 24.2667 7.81867 24.416 7.884C 24.5747 7.94 24.7427 7.996 24.92 8.052C 25.172 8.136 25.4333 8.22933 25.704 8.332C 25.9747 8.43467 26.2173 8.56533 26.432 8.724C 26.656 8.87333 26.838 9.06933 26.978 9.312C 27.118 9.54533 27.188 9.83467 27.188 10.18C 27.188 10.4507 27.1367 10.7073 27.034 10.95C 26.9313 11.1927 26.7587 11.4027 26.516 11.58C 26.2827 11.7573 25.9747 11.8973 25.592 12C 25.2093 12.1027 24.738 12.154 24.178 12.154C 23.6087 12.154 23.1233 12.0887 22.722 11.958C 22.3207 11.8273 21.9987 11.7107 21.756 11.608L 22.022 10.166C 22.3487 10.2967 22.694 10.418 23.058 10.53C 23.4313 10.642 23.8093 10.698 24.192 10.698ZM 32.508 12C 32.4053 11.7107 32.3073 11.4447 32.214 11.202C 32.13 10.9593 32.046 10.726 31.962 10.502C 31.8873 10.2687 31.808 10.0307 31.724 9.788C 31.6493 9.536 31.57 9.26067 31.486 8.962C 31.3927 9.26067 31.3087 9.53133 31.234 9.774C 31.1593 10.0073 31.08 10.2407 30.996 10.474C 30.9213 10.7073 30.842 10.9453 30.758 11.188C 30.674 11.4307 30.5713 11.7013 30.45 12L 29.148 12C 29.036 11.5893 28.9287 11.1367 28.826 10.642C 28.7327 10.138 28.644 9.606 28.56 9.046C 28.476 8.47667 28.4013 7.88867 28.336 7.282C 28.2707 6.67533 28.21 6.05467 28.154 5.42L 29.624 5.42C 29.6613 6.232 29.6987 7.02533 29.736 7.8C 29.7827 8.57467 29.862 9.37267 29.974 10.194C 30.0953 9.83933 30.198 9.51267 30.282 9.214C 30.3753 8.906 30.4547 8.61667 30.52 8.346C 30.5947 8.066 30.66 7.8 30.716 7.548C 30.7813 7.28667 30.8467 7.02067 30.912 6.75L 32.158 6.75C 32.214 7.02067 32.27 7.28667 32.326 7.548C 32.3913 7.8 32.4567 8.066 32.522 8.346C 32.5967 8.61667 32.6713 8.906 32.746 9.214C 32.83 9.51267 32.928 9.83933 33.04 10.194C 33.096 9.76467 33.1427 9.354 33.18 8.962C 33.2173 8.57 33.2453 8.18267 33.264 7.8C 33.292 7.408 33.3107 7.02067 33.32 6.638C 33.3387 6.246 33.3573 5.84 33.376 5.42L 34.846 5.42C 34.7433 6.69867 34.5987 7.90267 34.412 9.032C 34.2347 10.1613 34.034 11.1507 33.81 12L 32.508 12ZM 41.608 8.696C 41.608 9.21867 41.5333 9.69467 41.384 10.124C 41.2347 10.544 41.0247 10.908 40.754 11.216C 40.4833 11.524 40.1567 11.762 39.774 11.93C 39.4007 12.098 38.9807 12.182 38.514 12.182C 38.0473 12.182 37.6227 12.098 37.24 11.93C 36.8667 11.762 36.54 11.524 36.26 11.216C 35.9893 10.908 35.7793 10.544 35.63 10.124C 35.4807 9.69467 35.406 9.21867 35.406 8.696C 35.406 8.18267 35.4807 7.716 35.63 7.296C 35.7887 6.86667 36.0033 6.50267 36.274 6.204C 36.554 5.896 36.8853 5.66267 37.268 5.504C 37.6507 5.336 38.066 5.252 38.514 5.252C 38.9713 5.252 39.3867 5.336 39.76 5.504C 40.1427 5.66267 40.4693 5.896 40.74 6.204C 41.02 6.50267 41.2347 6.86667 41.384 7.296C 41.5333 7.716 41.608 8.18267 41.608 8.696ZM 37.156 8.71C 37.156 9.298 37.2587 9.774 37.464 10.138C 37.6787 10.502 38.0193 10.684 38.486 10.684C 38.934 10.684 39.27 10.502 39.494 10.138C 39.7273 9.774 39.844 9.298 39.844 8.71C 39.844 8.122 39.7367 7.65067 39.522 7.296C 39.3167 6.932 38.9807 6.75 38.514 6.75C 38.066 6.75 37.7253 6.932 37.492 7.296C 37.268 7.65067 37.156 8.122 37.156 8.71ZM 48.118 7.17C 48.006 7.142 47.8707 7.114 47.712 7.086C 47.5627 7.058 47.4087 7.03467 47.25 7.016C 47.0913 6.988 46.9373 6.96933 46.788 6.96C 46.6387 6.95067 46.5127 6.946 46.41 6.946C 46.1673 6.946 45.9293 6.96 45.696 6.988C 45.4627 7.00667 45.2247 7.04867 44.982 7.114L 44.982 12L 43.246 12L 43.246 5.854C 43.7033 5.686 44.17 5.55067 44.646 5.448C 45.1313 5.34533 45.696 5.294 46.34 5.294C 46.4333 5.294 46.564 5.29867 46.732 5.308C 46.9093 5.31733 47.096 5.336 47.292 5.364C 47.488 5.38267 47.684 5.41067 47.88 5.448C 48.0853 5.476 48.2673 5.518 48.426 5.574L 48.118 7.17ZM 51.142 8.668C 51.142 9.256 51.2493 9.73667 51.464 10.11C 51.688 10.4833 52.0427 10.67 52.528 10.67C 52.668 10.67 52.7987 10.6653 52.92 10.656C 53.0413 10.6467 53.1673 10.6327 53.298 10.614L 53.298 7.03C 53.1673 6.95533 53.018 6.89467 52.85 6.848C 52.682 6.792 52.5047 6.764 52.318 6.764C 51.9073 6.764 51.6087 6.92733 51.422 7.254C 51.2353 7.58067 51.142 8.052 51.142 8.668ZM 55.02 11.804C 54.7027 11.9067 54.3153 11.9907 53.858 12.056C 53.4007 12.1213 52.9527 12.154 52.514 12.154C 51.4873 12.154 50.708 11.8507 50.176 11.244C 49.6533 10.6373 49.392 9.80667 49.392 8.752C 49.392 7.67867 49.6113 6.834 50.05 6.218C 50.498 5.59267 51.156 5.28 52.024 5.28C 52.2573 5.28 52.486 5.308 52.71 5.364C 52.934 5.41067 53.13 5.48067 53.298 5.574L 53.298 2.578L 55.02 2.284L 55.02 11.804Z"/>
</defs>
</svg>
